<?xml version="1.0" encoding="utf-8"?>
<!-- Generator: Adobe Illustrator 19.0.0, SVG Export Plug-In . SVG Version: 6.00 Build 0)  -->
<svg version="1.1" id="Layer_1" xmlns="http://www.w3.org/2000/svg" xmlns:xlink="http://www.w3.org/1999/xlink" x="0px" y="0px"
	 viewBox="0 0 120 27.5" enable-background="new 18 18 18 27.5" xml:space="preserve">
<g id="XMLID_2_">
	<rect id="XMLID_22_" y="0" width="120" height="27.5"/>
	<g id="XMLID_3_">
		<polygon id="XMLID_21_" fill="#FFFFFF" points="30.1,9.9 30.1,6.6 20.1,6.6 20.1,20 23.4,20 23.4,16.6 30.1,16.6 30.1,13.3 
			23.4,13.3 23.4,9.9 		"/>
		<polygon id="XMLID_20_" fill="#FFFFFF" points="42.5,9.9 42.5,6.6 32.5,6.6 32.5,20 35.8,20 35.8,16.6 42.5,16.6 42.5,13.3 
			35.8,13.3 35.8,9.9 		"/>
		<polygon id="XMLID_19_" fill="#FFFFFF" points="69.6,6.6 66.2,6.6 66.2,14.1 61,6.6 57.7,6.6 57.7,20 61,20 61,12.4 66.2,20 
			66.2,20 69.6,20 		"/>
		<path id="XMLID_16_" fill="#FFFFFF" d="M72.5,6.6v6.7V20h3.3v-3.3h5.2V20h3.3V6.6H72.5z M75.9,13.3V9.9h5.2v3.3H75.9z"/>
		<path id="XMLID_13_" fill="#FFFFFF" d="M87.1,6.6V20h3.4v-3.3h5.2V20H99V6.6H87.1z M90.4,13.3V9.9h5.2v3.3H90.4z"/>
		<g id="XMLID_6_">
			<path id="XMLID_33_" fill="#FFFFFF" d="M113.1,11.6c0-2.8-2.3-5-5-5h-6.7V20h3.4v-3.3h3.3c0.1,0,0.1,0,0.2,0l1.2,3.3h3.6
				l-1.6-4.6C112.4,14.5,113.1,13.1,113.1,11.6z M104.7,9.9h3.3c0.9,0,1.6,0.7,1.6,1.6c0,0.9-0.7,1.6-1.6,1.6h-3.3V9.9z"/>
		</g>
		<polygon id="XMLID_5_" fill="#FFFFFF" points="17.8,9.9 17.8,6.6 7.7,6.6 7.7,20 7.7,23.2 17.8,23.2 17.8,20 11.1,20 11.1,16.6 
			17.6,16.6 17.6,13.3 11.1,13.3 11.1,9.9 		"/>
		<polygon id="XMLID_4_" fill="#FFFFFF" points="55,9.9 55,6.6 45,6.6 45,20 45,23.2 55,23.2 55,20 48.3,20 48.3,16.6 54.9,16.6 
			54.9,13.3 48.3,13.3 48.3,9.9 		"/>
	</g>
</g>
</svg>
